<?xml version="1.0" encoding="utf-8"?>
<!-- Generator: Adobe Illustrator 26.1.0, SVG Export Plug-In . SVG Version: 6.00 Build 0)  -->
<svg version="1.1" id="Lager_1" xmlns="http://www.w3.org/2000/svg" xmlns:xlink="http://www.w3.org/1999/xlink" x="0px" y="0px"
	 viewBox="0 0 182.3 181" style="enable-background:new 0 0 182.3 181;" xml:space="preserve">
<style type="text/css">
	.st0{fill:#FFFFFF;}
</style>
<g>
	<path class="st0" d="M74.9,0c-4,0-7.3,3.3-7.3,7.3v38L46.4,15.6c-2.3-3.3-6.9-4.1-10.2-1.7c-3.3,2.3-4.1,6.9-1.7,10.2l21.5,30.2
		c-15.7-5.2-36.6-12.1-36.6-12.1c-3.8-1.3-8,0.8-9.3,4.7c-1.3,3.8,0.8,8,4.7,9.3l67.5,22.3V7.3C82.2,3.3,78.9,0,74.9,0"/>
	<path class="st0" d="M9.6,72.8c-3.9-1.2-8,0.9-9.2,4.7C0.1,78.3,0,79.1,0,79.8c0,3.1,2,6,5.1,7c0,0,19.3,6.2,34.7,11.2L5.6,108.8
		c-3.9,1.2-6,5.3-4.8,9.2c1.2,3.9,5.3,6,9.2,4.8l37-11.7c-9.6,13.3-23.2,32-23.2,32c-0.9,1.3-1.4,2.8-1.4,4.3c0,2.3,1,4.5,3,5.9
		c3.3,2.4,7.9,1.6,10.2-1.6l41.3-57L9.6,72.8z"/>
	<path class="st0" d="M132.7,162.2l-41.3-57.3l-6,8.2l-35.7,48.9c-2.4,3.3-1.7,7.9,1.6,10.2c3.3,2.4,7.8,1.7,10.2-1.6
		c0,0,12.5-17.2,22.1-30.3v33.5c0,4,3.3,7.3,7.3,7.3c4,0,7.3-3.3,7.3-7.3v-34c9.6,13.3,22.4,31.1,22.4,31.1c2.4,3.3,6.9,4,10.2,1.7
		C134.4,170.1,135.1,165.5,132.7,162.2"/>
	<path class="st0" d="M171.8,46.9c-1.2-3.8-5.4-6-9.2-4.7c0,0-20.6,6.7-36.1,11.7L146.9,25c2.3-3.3,1.6-7.9-1.7-10.2
		c-3.3-2.3-7.9-1.6-10.2,1.7l-20.4,28.8v-38c0-4-3.3-7.3-7.3-7.3c-4,0-7.3,3.3-7.3,7.3v70.5l67.2-21.8
		C170.9,54.8,173,50.7,171.8,46.9"/>
	<path class="st0" d="M182.3,79.8c0-0.7-0.1-1.5-0.4-2.3c-1.2-3.8-5.4-6-9.2-4.7l-67.3,21.8l41.6,57c2.4,3.3,7,4,10.2,1.6
		c2-1.4,3-3.7,3-5.9c0-1.5-0.5-3-1.4-4.3c0,0-13.4-18.3-23.1-31.6l32.7,10.4c3.9,1.2,8-0.9,9.2-4.8c1.2-3.9-0.9-8-4.8-9.2l-30.7-9.8
		c15.4-5,34.9-11.3,34.9-11.3C180.3,85.8,182.3,82.9,182.3,79.8"/>
</g>
</svg>
