<svg width="702" height="143" viewBox="0 0 702 143" fill="none" xmlns="http://www.w3.org/2000/svg">
<g clip-path="url(#clip0)">
<path d="M34.893 52.465C34.893 27.875 51.024 7.054 73.28 0H0L35.54 60.927C35.115 58.169 34.893 55.343 34.893 52.465Z" fill="white"/>
<path d="M83.024 103.232C72.447 103.232 62.68 99.771 54.788 93.923L83.024 142.328L111.26 93.923C103.368 99.771 93.601 103.232 83.024 103.232Z" fill="white"/>
<path d="M166.049 0C166.049 0 102.042 0 100.718 0C63.519 0 54.643 28.906 54.643 42.481C54.643 48.564 55.925 54.346 58.229 59.577C58.582 60.288 58.934 60.986 59.278 61.666C63.712 69.728 72.139 75.277 81.895 75.662C81.895 75.66 81.894 75.66 81.894 75.66C81.892 75.658 81.891 75.656 81.889 75.654C82.265 75.676 82.643 75.687 83.025 75.687C83.371 75.687 83.714 75.676 84.056 75.662C94.652 75.125 103.078 66.364 103.078 55.635C103.078 44.571 94.117 35.601 83.058 35.583C83.422 35.247 83.797 34.922 84.179 34.606C89.128 30.409 95.53 27.872 102.527 27.872C118.205 27.872 130.915 40.582 130.915 56.26C130.915 57.835 130.781 59.377 130.535 60.881L166.049 0Z" fill="white"/>
<path d="M182.407 49.411C182.407 49.411 175.292 31.9 175.206 31.516C174.908 30.494 174.994 29.599 176.101 29.173H166.685C167.963 29.684 168.474 30.366 168.986 31.218C169.795 32.795 180.915 59.04 180.915 59.04C180.915 59.04 191.184 32.88 191.908 31.218C192.334 30.196 192.419 29.897 193.527 29.173H188.329C189.437 29.599 189.607 30.196 189.224 31.304C189.182 31.601 182.407 49.411 182.407 49.411Z" fill="white"/>
<path d="M236.2 40.421C232.195 38.589 230.363 37.609 230.363 35.01C230.363 33.178 231.64 30.919 234.879 30.919C238.969 30.919 241.398 34.328 241.994 36.586L241.781 30.28C239.608 29.003 236.796 28.704 235.347 28.704C231.471 28.704 226.059 31.005 226.059 36.799C226.059 40.037 227.764 42.338 231.683 44.511C235.56 46.599 239.267 47.153 239.267 51.243C239.267 53.331 237.989 56.356 233.771 56.356C229.34 56.356 226.784 52.351 225.974 49.326L226.187 56.526C227.679 57.251 230.49 58.571 234.367 58.571C239.608 58.571 244.295 54.95 244.295 49.624C244.295 43.702 240.162 42.296 236.2 40.421Z" fill="white"/>
<path d="M269.044 31.601C270.066 31.686 270.663 32.581 271.047 33.306V29.173H247.698V33.306C248.082 32.581 248.806 31.601 249.829 31.601C249.829 31.601 253.493 31.303 256.646 31.303V56.228C256.646 57.165 256.22 57.761 255.538 58.145H263.165C262.526 57.761 262.057 57.165 262.057 56.228V31.303C265.167 31.303 269.044 31.601 269.044 31.601Z" fill="white"/>
<path fill-rule="evenodd" clip-rule="evenodd" d="M285.589 31.218C289.807 31.218 291 34.626 291 36.586C291 40.89 287.932 42.509 285.035 42.509C284.311 42.509 283.118 42.424 283.118 42.424V31.304C283.118 31.304 284.311 31.218 285.589 31.218ZM296.624 36.331C296.624 33.477 294.622 29.173 285.802 29.173H276.599C277.281 29.514 277.707 30.11 277.707 31.09V56.228C277.707 57.165 277.281 57.762 276.599 58.145H284.311C283.586 57.762 283.118 57.165 283.118 56.228V44.597C283.118 44.597 284.481 44.511 284.992 44.511C286.825 44.511 287.804 46.344 288.912 48.048C290.446 50.434 292.321 53.544 294.238 56.228C295.005 57.251 296.411 58.23 298.03 58.23L303.569 58.145C303.569 58.145 301.651 57.464 300.842 56.441C299.351 54.737 294.238 46.642 294.238 46.642C293.599 45.705 292.321 43.745 289.423 43.446C292.449 43.233 296.624 40.933 296.624 36.331Z" fill="white"/>
<path fill-rule="evenodd" clip-rule="evenodd" d="M313.306 47.92C314.669 44.724 317.567 37.481 317.567 37.481C317.567 37.481 319.91 43.19 321.913 47.92H313.306ZM319.186 28.278C319.186 28.278 307.98 54.439 307.171 56.057C306.745 56.867 306.361 57.336 305.169 58.145H311.048C309.897 57.634 309.685 57.037 310.068 56.015C310.153 55.546 311.176 53.032 312.454 50.136H322.893C324.085 53.032 325.193 55.632 325.321 56.057C325.62 56.952 325.406 57.549 324.299 58.145H333.416C332.01 57.421 331.712 56.952 331.286 56.057C330.519 54.439 319.186 28.278 319.186 28.278Z" fill="white"/>
<path d="M212.499 26.381C213.689 26.381 214.698 25.443 214.698 24.182C214.698 22.992 213.689 22.055 212.499 22.055C211.31 22.055 210.372 22.992 210.372 24.182C210.372 25.443 211.31 26.381 212.499 26.381Z" fill="white"/>
<path fill-rule="evenodd" clip-rule="evenodd" d="M202.103 47.919C203.466 44.724 206.363 37.481 206.363 37.481C206.363 37.481 208.707 43.19 210.71 47.919H202.103ZM222.213 58.145C220.807 57.421 220.509 56.952 220.083 56.057C219.316 54.439 207.983 28.278 207.983 28.278C207.983 28.278 196.777 54.439 195.968 56.057C195.542 56.867 195.158 57.335 193.965 58.145H199.845C198.694 57.634 198.481 57.037 198.865 56.015C198.95 55.546 199.973 53.032 201.251 50.135H211.69C212.882 53.032 213.99 55.631 214.118 56.057C214.416 56.952 214.203 57.548 213.095 58.145H222.213V58.145Z" fill="white"/>
<path d="M203.035 26.381C204.225 26.381 205.234 25.443 205.234 24.182C205.234 22.992 204.225 22.055 203.035 22.055C201.846 22.055 200.908 22.992 200.908 24.182C200.908 25.443 201.846 26.381 203.035 26.381Z" fill="white"/>
<path d="M185.711 72.644C174.703 72.644 169.069 80.298 169.069 87.824C169.069 96.984 176.638 102.789 185.195 102.789C188.635 102.789 194.742 101.671 198.354 99.65C198.139 99.521 197.666 98.747 197.666 97.886V91.523C197.666 90.533 198.139 89.931 198.784 89.544H191.087C191.775 89.931 192.205 90.533 192.205 91.523V99.005C190.184 100.337 187.646 100.423 186.743 100.423C177.842 100.423 174.918 93.156 174.918 87.265C174.918 80.341 179.132 74.966 186.443 74.966C188.464 74.966 193.925 75.869 196.118 81.718L195.816 74.88C192.419 73.417 189.237 72.644 185.711 72.644Z" fill="white"/>
<path d="M262.662 75.568C263.694 75.654 264.296 76.558 264.683 77.289V73.117H241.118V77.289C241.505 76.558 242.236 75.568 243.268 75.568C243.268 75.568 246.966 75.267 250.148 75.267V100.423C250.148 101.371 249.718 101.972 249.031 102.359H256.728C256.083 101.972 255.61 101.371 255.61 100.423V75.267C258.749 75.267 262.662 75.568 262.662 75.568Z" fill="white"/>
<path fill-rule="evenodd" clip-rule="evenodd" d="M273.908 92.039C275.284 88.813 278.208 81.504 278.208 81.504C278.208 81.504 280.573 87.266 282.594 92.039H273.908ZM279.842 72.215C279.842 72.215 268.532 98.619 267.716 100.252C267.285 101.069 266.898 101.543 265.695 102.36H271.629C270.468 101.844 270.253 101.24 270.64 100.209C270.726 99.736 271.758 97.199 273.048 94.276H283.584C284.787 97.199 285.906 99.822 286.034 100.252C286.336 101.156 286.121 101.758 285.002 102.36H294.205C292.786 101.629 292.485 101.156 292.055 100.252C291.281 98.619 279.842 72.215 279.842 72.215Z" fill="white"/>
<path d="M308.118 73.117H300.334C301.065 73.461 301.538 74.064 301.538 75.053V100.424C301.538 101.371 301.065 101.972 300.334 102.359H318.438L319.385 97.414C318.051 99.908 316.546 99.951 311.773 100.123C309.838 100.123 307.86 99.951 307 99.908V75.053C307 74.064 307.429 73.461 308.118 73.117Z" fill="white"/>
<path fill-rule="evenodd" clip-rule="evenodd" d="M331.005 92.039C332.381 88.813 335.305 81.504 335.305 81.504C335.305 81.504 337.67 87.266 339.691 92.039H331.005ZM336.939 72.215C336.939 72.215 325.629 98.619 324.812 100.252C324.382 101.069 323.995 101.543 322.791 102.36H328.726C327.564 101.844 327.35 101.24 327.736 100.209C327.823 99.736 328.854 97.199 330.145 94.276H340.68C341.884 97.199 343.003 99.822 343.131 100.252C343.433 101.156 343.217 101.758 342.099 102.36H351.302C349.883 101.629 349.582 101.156 349.152 100.252C348.378 98.619 336.939 72.215 336.939 72.215Z" fill="white"/>
<path d="M379.08 92.039L363.213 73.117H355.816C356.719 73.633 357.32 74.236 357.75 74.752C358.568 75.74 358.525 75.783 358.525 77.461V100.424C358.525 101.371 358.053 101.973 357.406 102.359H362.18C361.449 101.973 360.976 101.371 360.976 100.424V78.879C360.976 79.225 381.617 103.564 381.617 103.564V75.053C381.617 74.064 382.09 73.461 382.734 73.117H377.963C378.65 73.461 379.08 74.064 379.08 75.053V92.039Z" fill="white"/>
<path fill-rule="evenodd" clip-rule="evenodd" d="M404.266 75.267C413.168 75.267 416.178 82.148 416.178 87.308C416.178 93.586 413.469 100.123 403.75 100.123C402.934 100.123 401.342 100.123 400.31 100.123V75.353C400.955 75.267 403.234 75.267 404.266 75.267ZM405.168 73.117H393.731C394.375 73.461 394.848 74.064 394.848 75.053V100.424C394.848 101.371 394.375 101.972 393.731 102.359H404.781C416.393 102.359 422.154 94.791 422.154 87.308C422.154 83.137 419.316 73.117 405.168 73.117Z" fill="white"/>
<path d="M441.035 84.471C436.992 82.621 435.142 81.633 435.142 79.01C435.142 77.16 436.433 74.881 439.701 74.881C443.83 74.881 446.281 78.321 446.883 80.6L446.668 74.237C444.474 72.946 441.636 72.645 440.174 72.645C436.261 72.645 430.801 74.967 430.801 80.815C430.801 84.084 432.519 86.405 436.476 88.598C440.389 90.705 444.131 91.266 444.131 95.393C444.131 97.5 442.84 100.553 438.584 100.553C434.111 100.553 431.531 96.512 430.715 93.457L430.93 100.725C432.433 101.457 435.271 102.789 439.185 102.789C444.474 102.789 449.205 99.135 449.205 93.758C449.205 87.781 445.033 86.362 441.035 84.471Z" fill="white"/>
<path fill-rule="evenodd" clip-rule="evenodd" d="M468.021 75.182C472.279 75.182 473.482 78.621 473.482 80.6C473.482 84.944 470.387 86.578 467.463 86.578C466.73 86.578 465.527 86.492 465.527 86.492V75.268C465.527 75.268 466.73 75.182 468.021 75.182ZM479.158 80.342C479.158 77.461 477.137 73.117 468.236 73.117H458.947C459.635 73.461 460.066 74.065 460.066 75.053V100.424C460.066 101.371 459.635 101.973 458.947 102.36H466.73C466 101.973 465.527 101.371 465.527 100.424V88.684C465.527 88.684 466.902 88.598 467.42 88.598C469.267 88.598 470.258 90.447 471.375 92.168C472.924 94.576 474.816 97.715 476.75 100.424C477.525 101.457 478.943 102.446 480.578 102.446L486.168 102.36C486.168 102.36 484.232 101.672 483.416 100.639C481.91 98.92 476.75 90.748 476.75 90.748C476.105 89.803 474.816 87.824 471.89 87.524C474.945 87.309 479.158 84.986 479.158 80.342Z" fill="white"/>
<path d="M508.994 73.117H491.707C492.394 73.461 492.998 74.064 492.998 75.053V100.424C492.998 101.457 492.439 101.93 491.707 102.359H510.199L511.102 97.414C509.51 100.123 507.791 100.037 504.049 100.123C501.941 100.209 499.318 100.037 498.459 99.908V87.265H504.953C505.555 87.265 506.285 87.91 506.5 88.512V83.955C506.285 84.471 505.555 85.158 504.953 85.158H498.459V75.267C498.459 75.267 504.478 75.267 505.769 75.353C507.402 75.439 508.306 75.783 509.123 76.902L508.994 73.117Z" fill="white"/>
<path d="M533.582 72.644C522.572 72.644 516.94 80.298 516.94 87.824C516.94 96.984 524.508 102.789 533.065 102.789C536.506 102.789 542.611 101.671 546.225 99.65C546.01 99.521 545.535 98.747 545.535 97.886V91.523C545.535 90.533 546.01 89.931 546.654 89.544H538.957C539.645 89.931 540.074 90.533 540.074 91.523V99.005C538.053 100.337 535.516 100.423 534.613 100.423C525.711 100.423 522.787 93.156 522.787 87.265C522.787 80.341 527.002 74.966 534.313 74.966C536.334 74.966 541.795 75.869 543.988 81.718L543.688 74.88C540.289 73.417 537.107 72.644 533.582 72.644Z" fill="white"/>
<path d="M556.379 73.117C557.067 73.461 557.498 74.064 557.498 75.053V100.424C557.498 101.371 557.067 101.972 556.379 102.359H564.162C563.432 101.972 563.045 101.371 563.045 100.424V75.053C563.045 74.064 563.432 73.461 564.162 73.117H556.379" fill="white"/>
<path fill-rule="evenodd" clip-rule="evenodd" d="M589.135 74.881C594.854 74.881 599.111 79.783 599.026 88.082C599.026 95.865 594.854 100.338 589.221 100.338C584.276 100.338 579.115 96.166 579.115 87.008C579.201 79.396 583.457 74.881 589.135 74.881ZM605.088 87.824C605.217 78.062 596.875 72.73 589.522 72.644C579.201 72.515 573.266 80.041 573.137 87.48C572.965 96.295 580.19 102.66 588.834 102.789C596.617 102.875 604.916 97.887 605.088 87.824Z" fill="white"/>
<path d="M634.713 92.039L618.844 73.117H611.447C612.352 73.633 612.953 74.236 613.383 74.752C614.199 75.74 614.156 75.783 614.156 77.461V100.424C614.156 101.371 613.684 101.973 613.039 102.359H617.813C617.082 101.973 616.608 101.371 616.608 100.424V78.879C616.608 79.225 637.25 103.564 637.25 103.564V75.053C637.25 74.064 637.723 73.461 638.367 73.117H633.594C634.281 73.461 634.713 74.064 634.713 75.053V92.039Z" fill="white"/>
<path d="M665.617 73.117H648.33C649.017 73.461 649.619 74.064 649.619 75.053V100.424C649.619 101.457 649.06 101.93 648.33 102.359H666.82L667.724 97.414C666.133 100.123 664.412 100.037 660.672 100.123C658.564 100.209 655.941 100.037 655.082 99.908V87.265H661.574C662.178 87.265 662.908 87.91 663.123 88.512V83.955C662.908 84.471 662.178 85.158 661.574 85.158H655.082V75.267C655.082 75.267 661.101 75.267 662.392 75.353C664.025 75.439 664.93 75.783 665.746 76.902L665.617 73.117Z" fill="white"/>
<path d="M697.779 92.039L681.912 73.117H674.515C675.418 73.633 676.021 74.236 676.451 74.752C677.267 75.74 677.224 75.783 677.224 77.461V100.424C677.224 101.371 676.752 101.973 676.107 102.359H680.881C680.148 101.973 679.675 101.371 679.675 100.424V78.879C679.675 79.225 700.316 103.564 700.316 103.564V75.053C700.316 74.064 700.791 73.461 701.435 73.117H696.662C697.349 73.461 697.779 74.064 697.779 75.053V92.039Z" fill="white"/>
<path fill-rule="evenodd" clip-rule="evenodd" d="M221.571 74.881C227.291 74.881 231.547 79.783 231.461 88.082C231.461 95.865 227.291 100.338 221.657 100.338C216.711 100.338 211.551 96.166 211.551 87.008C211.637 79.396 215.895 74.881 221.571 74.881ZM237.525 87.824C237.654 78.062 229.312 72.73 221.958 72.644C211.637 72.515 205.703 80.041 205.574 87.48C205.402 96.295 212.627 102.66 221.27 102.789C229.053 102.875 237.353 97.887 237.525 87.824Z" fill="white"/>
<path d="M226.284 70.541C227.485 70.541 228.504 69.595 228.504 68.321C228.504 67.121 227.485 66.174 226.284 66.174C225.083 66.174 224.137 67.121 224.137 68.321C224.137 69.595 225.083 70.541 226.284 70.541Z" fill="white"/>
<path d="M216.732 70.541C217.933 70.541 218.952 69.595 218.952 68.321C218.952 67.121 217.933 66.174 216.732 66.174C215.531 66.174 214.585 67.121 214.585 68.321C214.585 69.595 215.531 70.541 216.732 70.541Z" fill="white"/>
</g>
<defs>
<clipPath id="clip0">
<rect width="701.435" height="142.328" fill="white"/>
</clipPath>
</defs>
</svg>
